<?xml version="1.0" encoding="UTF-8" standalone="no"?>
<!DOCTYPE svg PUBLIC "-//W3C//DTD SVG 1.1//EN" "http://www.w3.org/Graphics/SVG/1.1/DTD/svg11.dtd">
<svg width="100%" height="100%" viewBox="0 0 46 46" version="1.1" xmlns="http://www.w3.org/2000/svg" xmlns:xlink="http://www.w3.org/1999/xlink" xml:space="preserve" xmlns:serif="http://www.serif.com/" style="fill-rule:evenodd;clip-rule:evenodd;stroke-linejoin:round;stroke-miterlimit:1.41421;">
    <g id="alert" transform="matrix(1,0,0,1,-1399.51,-13.9996)">
        <path d="M1432.32,45.316L1431.93,45.316C1430.7,43.7 1430.02,41.7 1430.02,39.644L1430.02,35.112C1430.02,31.537 1427.67,28.524 1424.49,27.624C1424.7,27.266 1424.82,26.847 1424.82,26.396C1424.82,25.082 1423.79,24.008 1422.51,24.008C1421.23,24.008 1420.2,25.082 1420.2,26.396C1420.2,26.847 1420.32,27.266 1420.53,27.624C1417.35,28.524 1415,31.537 1415,35.112L1415,39.644C1415,41.705 1414.32,43.7 1413.09,45.316L1412.7,45.316C1412.32,45.316 1412.01,45.639 1412.01,46.038C1412.01,46.437 1412.32,46.759 1412.7,46.759L1418.75,46.759C1419.08,48.595 1420.64,49.991 1422.51,49.991C1424.37,49.991 1425.93,48.595 1426.26,46.759L1432.31,46.759C1432.69,46.759 1433.01,46.437 1433.01,46.038C1433.02,45.639 1432.7,45.316 1432.32,45.316ZM1422.51,25.45C1423.01,25.45 1423.42,25.875 1423.42,26.396C1423.42,26.918 1423.01,27.343 1422.51,27.343C1422.01,27.343 1421.59,26.918 1421.59,26.396C1421.59,25.875 1422.01,25.45 1422.51,25.45ZM1422.51,48.549C1421.41,48.549 1420.49,47.792 1420.18,46.759L1424.84,46.759C1424.53,47.792 1423.61,48.549 1422.51,48.549ZM1414.81,45.316C1415.84,43.629 1416.39,41.659 1416.39,39.644L1416.39,35.112C1416.39,31.624 1419.14,28.785 1422.52,28.785C1425.89,28.785 1428.63,31.624 1428.63,35.112L1428.63,39.644C1428.63,41.659 1429.19,43.629 1430.22,45.316L1414.81,45.316Z" style="fill:white;fill-rule:nonzero;"/>
    </g>
</svg>
