<?xml version="1.0" encoding="UTF-8" standalone="no"?>
<!DOCTYPE svg PUBLIC "-//W3C//DTD SVG 1.1//EN" "http://www.w3.org/Graphics/SVG/1.1/DTD/svg11.dtd">
<svg width="100%" height="100%" viewBox="0 0 30 60" version="1.1" xmlns="http://www.w3.org/2000/svg" xmlns:xlink="http://www.w3.org/1999/xlink" xml:space="preserve" xmlns:serif="http://www.serif.com/" style="fill-rule:evenodd;clip-rule:evenodd;stroke-linejoin:round;stroke-miterlimit:1.41421;">
    <g id="bottom" transform="matrix(1.25,0,0,0.9375,-2.5,28.125)">
        <rect x="2" y="2" width="24" height="32" style="fill:none;"/>
    </g>
    <g id="top" transform="matrix(1.25,0,0,0.9375,-2.5,-1.875)">
        <rect x="2" y="2" width="24" height="32" style="fill:none;"/>
    </g>
    <g transform="matrix(0.0459184,0,0,0.0459184,6,3.2449)">
        <path d="M80,296C80,301.523 75.523,306 70,306C64.477,306 60,301.523 60,296C60,290.477 64.477,286 70,286C75.523,286 80,290.477 80,296Z" style="fill:rgb(37,37,37);fill-rule:nonzero;"/>
        <path d="M80,356C80,361.523 75.523,366 70,366C64.477,366 60,361.523 60,356C60,350.477 64.477,346 70,346C75.523,346 80,350.477 80,356Z" style="fill:rgb(37,37,37);fill-rule:nonzero;"/>
        <path d="M80,416C80,421.523 75.523,426 70,426C64.477,426 60,421.523 60,416C60,410.477 64.477,406 70,406C75.523,406 80,410.477 80,416Z" style="fill:rgb(37,37,37);fill-rule:nonzero;"/>
        <path d="M30,512L362,512C378.543,512 392,498.543 392,482L392,110C392,107.309 390.895,104.75 389.07,102.93L289.07,2.93C289.008,2.867 288.938,2.812 288.875,2.754C288.703,2.59 288.531,2.426 288.348,2.273C288.27,2.211 288.184,2.152 288.102,2.09C287.926,1.953 287.746,1.816 287.562,1.691C287.496,1.645 287.426,1.609 287.355,1.566C287.148,1.434 286.937,1.301 286.719,1.184C286.676,1.16 286.625,1.141 286.578,1.117C286.336,0.988 286.09,0.871 285.836,0.766C285.805,0.75 285.77,0.742 285.742,0.73C285.473,0.621 285.195,0.52 284.914,0.434C284.883,0.426 284.848,0.418 284.812,0.406C284.535,0.328 284.258,0.254 283.969,0.195C283.887,0.18 283.801,0.172 283.715,0.156C283.48,0.117 283.242,0.074 283,0.051C282.668,0.016 282.336,0 282,0L30,0C13.457,0 0,13.457 0,30L0,482C0,498.543 13.457,512 30,512ZM292,34.145L357.855,100L292,100L292,34.145ZM20,30C20,24.484 24.484,20 30,20L272,20L272,110C272,115.523 276.477,120 282,120L372,120L372,482C372,487.516 367.516,492 362,492L30,492C24.484,492 20,487.516 20,482L20,30Z" style="fill:rgb(37,37,37);fill-rule:nonzero;"/>
        <path d="M156,240C205.625,240 246,199.625 246,150C246,100.375 205.625,60 156,60C106.375,60 66,100.375 66,150C66,199.625 106.375,240 156,240ZM225.273,140L166,140L166,80.727C196.609,85.125 220.875,109.391 225.273,140ZM146,80.727L146,150C146,155.523 150.477,159.988 156,159.988L225.273,159.988C220.406,193.867 191.203,220 156,220C117.402,220 86,188.598 86,150C86,114.797 112.125,85.594 146,80.727Z" style="fill:rgb(37,37,37);fill-rule:nonzero;"/>
        <path d="M100,296C100,301.523 104.477,306 110,306L322,306C327.523,306 332,301.523 332,296C332,290.477 327.523,286 322,286L110,286C104.477,286 100,290.477 100,296Z" style="fill:rgb(37,37,37);fill-rule:nonzero;"/>
        <path d="M322,346L110,346C104.477,346 100,350.477 100,356C100,361.523 104.477,366 110,366L322,366C327.523,366 332,361.523 332,356C332,350.477 327.523,346 322,346Z" style="fill:rgb(37,37,37);fill-rule:nonzero;"/>
        <path d="M322,406L110,406C104.477,406 100,410.477 100,416C100,421.523 104.477,426 110,426L322,426C327.523,426 332,421.523 332,416C332,410.477 327.523,406 322,406Z" style="fill:rgb(37,37,37);fill-rule:nonzero;"/>
    </g>
    <g transform="matrix(0.0459184,0,0,0.0459184,6,33.2449)">
        <path d="M80,296C80,301.523 75.523,306 70,306C64.477,306 60,301.523 60,296C60,290.477 64.477,286 70,286C75.523,286 80,290.477 80,296Z" style="fill:white;fill-rule:nonzero;"/>
        <path d="M80,356C80,361.523 75.523,366 70,366C64.477,366 60,361.523 60,356C60,350.477 64.477,346 70,346C75.523,346 80,350.477 80,356Z" style="fill:white;fill-rule:nonzero;"/>
        <path d="M80,416C80,421.523 75.523,426 70,426C64.477,426 60,421.523 60,416C60,410.477 64.477,406 70,406C75.523,406 80,410.477 80,416Z" style="fill:white;fill-rule:nonzero;"/>
        <path d="M30,512L362,512C378.543,512 392,498.543 392,482L392,110C392,107.309 390.895,104.75 389.07,102.93L289.07,2.93C289.008,2.867 288.938,2.812 288.875,2.754C288.703,2.59 288.531,2.426 288.348,2.273C288.27,2.211 288.184,2.152 288.102,2.09C287.926,1.953 287.746,1.816 287.562,1.691C287.496,1.645 287.426,1.609 287.355,1.566C287.148,1.434 286.937,1.301 286.719,1.184C286.676,1.16 286.625,1.141 286.578,1.117C286.336,0.988 286.09,0.871 285.836,0.766C285.805,0.75 285.77,0.742 285.742,0.73C285.473,0.621 285.195,0.52 284.914,0.434C284.883,0.426 284.848,0.418 284.812,0.406C284.535,0.328 284.258,0.254 283.969,0.195C283.887,0.18 283.801,0.172 283.715,0.156C283.48,0.117 283.242,0.074 283,0.051C282.668,0.016 282.336,0 282,0L30,0C13.457,0 0,13.457 0,30L0,482C0,498.543 13.457,512 30,512ZM292,34.145L357.855,100L292,100L292,34.145ZM20,30C20,24.484 24.484,20 30,20L272,20L272,110C272,115.523 276.477,120 282,120L372,120L372,482C372,487.516 367.516,492 362,492L30,492C24.484,492 20,487.516 20,482L20,30Z" style="fill:white;fill-rule:nonzero;"/>
        <path d="M156,240C205.625,240 246,199.625 246,150C246,100.375 205.625,60 156,60C106.375,60 66,100.375 66,150C66,199.625 106.375,240 156,240ZM225.273,140L166,140L166,80.727C196.609,85.125 220.875,109.391 225.273,140ZM146,80.727L146,150C146,155.523 150.477,159.988 156,159.988L225.273,159.988C220.406,193.867 191.203,220 156,220C117.402,220 86,188.598 86,150C86,114.797 112.125,85.594 146,80.727Z" style="fill:white;fill-rule:nonzero;"/>
        <path d="M100,296C100,301.523 104.477,306 110,306L322,306C327.523,306 332,301.523 332,296C332,290.477 327.523,286 322,286L110,286C104.477,286 100,290.477 100,296Z" style="fill:white;fill-rule:nonzero;"/>
        <path d="M322,346L110,346C104.477,346 100,350.477 100,356C100,361.523 104.477,366 110,366L322,366C327.523,366 332,361.523 332,356C332,350.477 327.523,346 322,346Z" style="fill:white;fill-rule:nonzero;"/>
        <path d="M322,406L110,406C104.477,406 100,410.477 100,416C100,421.523 104.477,426 110,426L322,426C327.523,426 332,421.523 332,416C332,410.477 327.523,406 322,406Z" style="fill:white;fill-rule:nonzero;"/>
    </g>
</svg>
