<?xml version="1.0" encoding="UTF-8" standalone="no"?>
<!DOCTYPE svg PUBLIC "-//W3C//DTD SVG 1.1//EN" "http://www.w3.org/Graphics/SVG/1.1/DTD/svg11.dtd">
<svg width="100%" height="100%" viewBox="0 0 27 16" version="1.1" xmlns="http://www.w3.org/2000/svg" xmlns:xlink="http://www.w3.org/1999/xlink" xml:space="preserve" xmlns:serif="http://www.serif.com/" style="fill-rule:evenodd;clip-rule:evenodd;stroke-linejoin:round;stroke-miterlimit:1.41421;">
    <g id="Search" transform="matrix(0.0273439,0,0,0.0273439,1,1)">
        <path d="M499.468,438.959L388.239,327.733C387.648,327.141 386.954,326.728 386.336,326.178C408.223,292.978 420.996,253.238 420.996,210.5C420.996,94.244 326.753,0 210.498,0C94.244,0 0,94.244 0,210.498C0,326.751 94.242,420.996 210.496,420.996C253.236,420.996 292.974,408.223 326.174,386.336C326.724,386.952 327.135,387.645 327.726,388.237L438.957,499.468C455.667,516.175 482.756,516.175 499.468,499.468C516.175,482.758 516.175,455.669 499.468,438.959ZM210.498,348.023C134.543,348.023 72.971,286.451 72.971,210.498C72.971,134.543 134.545,72.971 210.498,72.971C286.449,72.971 348.023,134.545 348.023,210.498C348.023,286.451 286.449,348.023 210.498,348.023Z" style="fill:rgb(101,101,101);"/>
    </g>
</svg>
