<?xml version="1.0" encoding="UTF-8" standalone="no"?>
<!DOCTYPE svg PUBLIC "-//W3C//DTD SVG 1.1//EN" "http://www.w3.org/Graphics/SVG/1.1/DTD/svg11.dtd">
<svg width="100%" height="100%" viewBox="0 0 27 16" version="1.1" xmlns="http://www.w3.org/2000/svg" xmlns:xlink="http://www.w3.org/1999/xlink" xml:space="preserve" xmlns:serif="http://www.serif.com/" style="fill-rule:evenodd;clip-rule:evenodd;stroke-linejoin:round;stroke-miterlimit:1.41421;">
    <g id="Forma-1-copy-3" serif:id="Forma 1 copy 3" transform="matrix(1,0,0,1,-1169,-188)">
        <path d="M1180.16,189.067L1180.16,188.533C1180.16,188.213 1180.37,188 1180.69,188C1181.01,188 1181.22,188.213 1181.22,188.533L1181.22,189.067L1183.34,189.067C1184.83,189.067 1186,190.24 1186,191.733L1186,201.333C1186,202.827 1184.83,204 1183.34,204L1171.66,204C1170.17,204 1169,202.827 1169,201.333L1169,191.733C1169,190.241 1170.17,189.068 1171.66,189.067L1173.78,189.067L1173.78,188.533C1173.78,188.213 1173.99,188 1174.31,188C1174.63,188 1174.84,188.213 1174.84,188.533L1174.84,189.067L1180.16,189.067ZM1183.34,202.933C1184.19,202.932 1184.94,202.186 1184.94,201.333L1184.94,194.4L1170.06,194.4L1170.06,201.333C1170.06,202.187 1170.81,202.933 1171.66,202.933L1183.34,202.933ZM1175.91,201.333C1176.23,201.333 1176.44,201.227 1176.65,201.013C1176.86,200.8 1176.97,200.48 1176.97,200.267C1176.97,200.053 1176.86,199.733 1176.65,199.52C1176.23,199.093 1175.59,199.093 1175.16,199.52C1174.95,199.733 1174.84,200.053 1174.84,200.267C1174.84,200.48 1174.95,200.8 1175.16,201.013C1175.38,201.227 1175.59,201.333 1175.91,201.333ZM1179.09,201.333C1179.41,201.333 1179.63,201.227 1179.84,201.013C1180.05,200.8 1180.16,200.587 1180.16,200.267C1180.16,199.947 1180.05,199.733 1179.84,199.52C1179.41,199.093 1178.78,199.093 1178.35,199.52C1178.14,199.733 1178.03,200.053 1178.03,200.267C1178.03,200.48 1178.14,200.8 1178.35,201.013C1178.56,201.227 1178.78,201.333 1179.09,201.333ZM1182.28,201.333C1182.6,201.333 1182.81,201.227 1183.03,201.013C1183.24,200.8 1183.34,200.48 1183.34,200.267C1183.34,200.053 1183.24,199.733 1183.03,199.52C1182.6,199.093 1181.96,199.093 1181.54,199.52C1181.33,199.733 1181.22,199.947 1181.22,200.267C1181.22,200.48 1181.33,200.8 1181.54,201.013C1181.75,201.227 1181.96,201.333 1182.28,201.333ZM1172.72,201.333C1173.04,201.333 1173.25,201.227 1173.46,201.013C1173.67,200.8 1173.78,200.48 1173.78,200.267C1173.78,200.053 1173.67,199.733 1173.46,199.52C1173.04,199.093 1172.4,199.093 1171.98,199.52C1171.76,199.733 1171.66,199.947 1171.66,200.267C1171.66,200.48 1171.76,200.8 1171.98,201.013C1172.19,201.227 1172.4,201.333 1172.72,201.333ZM1175.91,198.133C1176.23,198.133 1176.44,198.027 1176.65,197.813C1176.86,197.6 1176.97,197.28 1176.97,197.067C1176.97,196.853 1176.86,196.533 1176.65,196.32C1176.23,195.893 1175.59,195.893 1175.16,196.32C1174.95,196.533 1174.84,196.853 1174.84,197.067C1174.84,197.28 1174.95,197.6 1175.16,197.813C1175.38,198.027 1175.59,198.133 1175.91,198.133ZM1179.09,198.133C1179.41,198.133 1179.63,198.027 1179.84,197.813C1180.05,197.6 1180.16,197.387 1180.16,197.067C1180.16,196.853 1180.05,196.533 1179.84,196.32C1179.41,195.893 1178.78,195.893 1178.35,196.32C1178.14,196.533 1178.03,196.853 1178.03,197.067C1178.03,197.28 1178.14,197.6 1178.35,197.813C1178.56,198.027 1178.78,198.133 1179.09,198.133ZM1182.28,198.133C1182.6,198.133 1182.81,198.027 1183.03,197.813C1183.24,197.6 1183.34,197.387 1183.34,197.067C1183.34,196.853 1183.24,196.533 1183.03,196.32C1182.6,195.893 1181.96,195.893 1181.54,196.32C1181.33,196.533 1181.22,196.853 1181.22,197.067C1181.22,197.28 1181.33,197.6 1181.54,197.813C1181.75,198.027 1181.96,198.133 1182.28,198.133ZM1172.72,198.133C1173.04,198.133 1173.25,198.027 1173.46,197.813C1173.67,197.6 1173.78,197.28 1173.78,197.067C1173.78,196.853 1173.67,196.533 1173.46,196.32C1173.04,195.893 1172.4,195.893 1171.98,196.32C1171.76,196.533 1171.66,196.747 1171.66,197.067C1171.66,197.387 1171.76,197.6 1171.98,197.813C1172.19,198.027 1172.4,198.133 1172.72,198.133ZM1184.94,193.333L1184.94,191.733C1184.94,190.88 1184.19,190.133 1183.34,190.133L1181.22,190.133L1181.22,190.667C1181.22,190.987 1181.01,191.2 1180.69,191.2C1180.37,191.2 1180.16,190.987 1180.16,190.667L1180.16,190.133L1174.84,190.133L1174.84,190.667C1174.84,190.987 1174.63,191.2 1174.31,191.2C1173.99,191.2 1173.78,190.987 1173.78,190.667L1173.78,190.133L1171.66,190.133C1170.81,190.133 1170.06,190.88 1170.06,191.733L1170.06,193.333L1184.94,193.333Z" style="fill:rgb(101,101,101);"/>
    </g>
</svg>
