<?xml version="1.0" standalone="no"?>
<!DOCTYPE svg PUBLIC "-//W3C//DTD SVG 20010904//EN"
 "http://www.w3.org/TR/2001/REC-SVG-20010904/DTD/svg10.dtd">
<svg version="1.0" xmlns="http://www.w3.org/2000/svg"
 width="64.000000pt" height="64.000000pt" viewBox="0 0 64.000000 64.000000"
 preserveAspectRatio="xMidYMid meet">
<metadata>
Created by potrace 1.16, written by Peter Selinger 2001-2019
</metadata>
<g transform="translate(0.000000,64.000000) scale(0.100000,-0.100000)"
fill="#000000" stroke="none">
<path d="M106 588 c-24 -33 -24 -503 0 -536 15 -21 20 -22 214 -22 194 0 199
1 214 22 13 18 16 57 16 211 0 146 -3 188 -12 185 -10 -4 -14 -51 -16 -183 -1
-111 -7 -184 -13 -192 -15 -18 -359 -19 -377 -1 -17 17 -17 479 0 496 8 8 56
12 150 12 l138 0 0 -34 c0 -44 29 -66 87 -66 37 0 43 3 43 20 0 29 -26 76 -52
94 -18 13 -55 16 -200 16 -171 0 -177 -1 -192 -22z"/>
</g>
</svg>
