<?xml version="1.0" encoding="UTF-8" standalone="no"?>
<!DOCTYPE svg PUBLIC "-//W3C//DTD SVG 1.1//EN" "http://www.w3.org/Graphics/SVG/1.1/DTD/svg11.dtd">
<svg width="100%" height="100%" viewBox="0 0 30 60" version="1.1" xmlns="http://www.w3.org/2000/svg" xmlns:xlink="http://www.w3.org/1999/xlink" xml:space="preserve" xmlns:serif="http://www.serif.com/" style="fill-rule:evenodd;clip-rule:evenodd;stroke-linejoin:round;stroke-miterlimit:1.41421;">
    <g id="bottom" transform="matrix(1.25,0,0,0.9375,-2.5,28.125)">
        <rect x="2" y="2" width="24" height="32" style="fill:none;"/>
    </g>
    <g id="top" transform="matrix(1.25,0,0,0.9375,-2.5,-1.875)">
        <rect x="2" y="2" width="24" height="32" style="fill:none;"/>
    </g>
    <g id="Purchase" transform="matrix(1,0,0,1,-12.0001,-135)">
        <path d="M22.27,183.802L35.314,183.802C36.793,183.802 38,182.579 38,181.079L38,175.516L38,175.457C38,175.447 38,175.437 37.995,175.427C37.995,175.417 37.99,175.402 37.99,175.392C37.99,175.383 37.985,175.373 37.985,175.363C37.98,175.353 37.98,175.343 37.976,175.328C37.971,175.318 37.971,175.309 37.966,175.299C37.961,175.289 37.961,175.279 37.956,175.269C37.951,175.259 37.946,175.249 37.942,175.235C37.937,175.225 37.932,175.215 37.927,175.21C37.922,175.2 37.917,175.19 37.912,175.18C37.908,175.17 37.903,175.166 37.898,175.156C37.893,175.146 37.883,175.136 37.878,175.126C37.873,175.116 37.869,175.111 37.859,175.101C37.854,175.091 37.844,175.087 37.839,175.077C37.835,175.067 37.825,175.062 37.82,175.052C37.815,175.042 37.805,175.037 37.8,175.032C37.791,175.022 37.786,175.018 37.776,175.008C37.766,175.003 37.762,174.993 37.752,174.988C37.742,174.983 37.732,174.973 37.723,174.968C37.713,174.963 37.708,174.958 37.698,174.953C37.689,174.948 37.679,174.944 37.669,174.934L37.582,174.889C37.572,174.884 37.562,174.884 37.552,174.879C37.543,174.875 37.528,174.87 37.518,174.87C37.509,174.87 37.499,174.865 37.494,174.865C37.479,174.86 37.47,174.86 37.455,174.86C37.45,174.86 37.445,174.855 37.436,174.855L20.903,172.541L20.903,170.204C20.903,170.179 20.903,170.154 20.898,170.134C20.898,170.129 20.898,170.125 20.893,170.115C20.893,170.1 20.888,170.085 20.888,170.07C20.883,170.056 20.883,170.046 20.879,170.031C20.879,170.021 20.874,170.016 20.874,170.006C20.869,169.991 20.864,169.977 20.859,169.962C20.859,169.957 20.854,169.947 20.854,169.942C20.849,169.927 20.845,169.917 20.835,169.903C20.83,169.898 20.83,169.888 20.825,169.883C20.82,169.873 20.815,169.863 20.806,169.853C20.801,169.843 20.796,169.838 20.791,169.829C20.786,169.819 20.781,169.814 20.776,169.804C20.772,169.794 20.762,169.784 20.757,169.774L20.713,169.73C20.708,169.725 20.704,169.72 20.699,169.715C20.689,169.705 20.679,169.695 20.665,169.686C20.66,169.681 20.65,169.676 20.645,169.671C20.635,169.661 20.626,169.656 20.616,169.646C20.601,169.636 20.587,169.626 20.577,169.621C20.572,169.617 20.567,169.617 20.562,169.612C20.543,169.602 20.519,169.592 20.499,169.582L16.913,168.053C16.578,167.91 16.193,168.068 16.052,168.408C15.911,168.748 16.067,169.138 16.403,169.281L19.585,170.642L19.585,185.233C19.585,186.614 20.606,187.758 21.925,187.931C21.686,188.335 21.545,188.809 21.545,189.312C21.545,190.796 22.737,192 24.197,192C25.656,192 26.849,190.791 26.849,189.312C26.849,188.818 26.717,188.35 26.484,187.955L32.39,187.955C32.157,188.355 32.025,188.818 32.025,189.312C32.025,190.796 33.217,192 34.677,192C36.137,192 37.329,190.791 37.329,189.312C37.329,187.832 36.137,186.624 34.677,186.624L22.27,186.624C21.511,186.624 20.898,185.997 20.898,185.233L20.898,183.427C21.297,183.664 21.769,183.802 22.27,183.802ZM25.54,189.307C25.54,190.057 24.936,190.663 24.202,190.663C23.467,190.663 22.864,190.052 22.864,189.307C22.864,188.562 23.467,187.95 24.202,187.95C24.936,187.95 25.54,188.557 25.54,189.307ZM36.02,189.307C36.02,190.057 35.416,190.663 34.682,190.663C33.947,190.663 33.344,190.052 33.344,189.307C33.344,188.562 33.947,187.95 34.682,187.95C35.416,187.95 36.02,188.557 36.02,189.307ZM35.314,182.47L22.27,182.47C21.511,182.47 20.898,181.844 20.898,181.079L20.898,177.799L20.898,174.13L20.898,173.883L36.686,176.088L36.686,181.075C36.686,181.849 36.068,182.47 35.314,182.47Z" style="fill:white;fill-rule:nonzero;"/>
    </g>
    <g id="Purchase1" serif:id="Purchase" transform="matrix(1,0,0,1,-12.0001,-165)">
        <path d="M22.27,183.802L35.314,183.802C36.793,183.802 38,182.579 38,181.079L38,175.516L38,175.457C38,175.447 38,175.437 37.995,175.427C37.995,175.417 37.99,175.402 37.99,175.392C37.99,175.383 37.985,175.373 37.985,175.363C37.98,175.353 37.98,175.343 37.976,175.328C37.971,175.318 37.971,175.309 37.966,175.299C37.961,175.289 37.961,175.279 37.956,175.269C37.951,175.259 37.946,175.249 37.942,175.235C37.937,175.225 37.932,175.215 37.927,175.21C37.922,175.2 37.917,175.19 37.912,175.18C37.908,175.17 37.903,175.166 37.898,175.156C37.893,175.146 37.883,175.136 37.878,175.126C37.873,175.116 37.869,175.111 37.859,175.101C37.854,175.091 37.844,175.087 37.839,175.077C37.835,175.067 37.825,175.062 37.82,175.052C37.815,175.042 37.805,175.037 37.8,175.032C37.791,175.022 37.786,175.018 37.776,175.008C37.766,175.003 37.762,174.993 37.752,174.988C37.742,174.983 37.732,174.973 37.723,174.968C37.713,174.963 37.708,174.958 37.698,174.953C37.689,174.948 37.679,174.944 37.669,174.934L37.582,174.889C37.572,174.884 37.562,174.884 37.552,174.879C37.543,174.875 37.528,174.87 37.518,174.87C37.509,174.87 37.499,174.865 37.494,174.865C37.479,174.86 37.47,174.86 37.455,174.86C37.45,174.86 37.445,174.855 37.436,174.855L20.903,172.541L20.903,170.204C20.903,170.179 20.903,170.154 20.898,170.134C20.898,170.129 20.898,170.125 20.893,170.115C20.893,170.1 20.888,170.085 20.888,170.07C20.883,170.056 20.883,170.046 20.879,170.031C20.879,170.021 20.874,170.016 20.874,170.006C20.869,169.991 20.864,169.977 20.859,169.962C20.859,169.957 20.854,169.947 20.854,169.942C20.849,169.927 20.845,169.917 20.835,169.903C20.83,169.898 20.83,169.888 20.825,169.883C20.82,169.873 20.815,169.863 20.806,169.853C20.801,169.843 20.796,169.838 20.791,169.829C20.786,169.819 20.781,169.814 20.776,169.804C20.772,169.794 20.762,169.784 20.757,169.774L20.713,169.73C20.708,169.725 20.704,169.72 20.699,169.715C20.689,169.705 20.679,169.695 20.665,169.686C20.66,169.681 20.65,169.676 20.645,169.671C20.635,169.661 20.626,169.656 20.616,169.646C20.601,169.636 20.587,169.626 20.577,169.621C20.572,169.617 20.567,169.617 20.562,169.612C20.543,169.602 20.519,169.592 20.499,169.582L16.913,168.053C16.578,167.91 16.193,168.068 16.052,168.408C15.911,168.748 16.067,169.138 16.403,169.281L19.585,170.642L19.585,185.233C19.585,186.614 20.606,187.758 21.925,187.931C21.686,188.335 21.545,188.809 21.545,189.312C21.545,190.796 22.737,192 24.197,192C25.656,192 26.849,190.791 26.849,189.312C26.849,188.818 26.717,188.35 26.484,187.955L32.39,187.955C32.157,188.355 32.025,188.818 32.025,189.312C32.025,190.796 33.217,192 34.677,192C36.137,192 37.329,190.791 37.329,189.312C37.329,187.832 36.137,186.624 34.677,186.624L22.27,186.624C21.511,186.624 20.898,185.997 20.898,185.233L20.898,183.427C21.297,183.664 21.769,183.802 22.27,183.802ZM25.54,189.307C25.54,190.057 24.936,190.663 24.202,190.663C23.467,190.663 22.864,190.052 22.864,189.307C22.864,188.562 23.467,187.95 24.202,187.95C24.936,187.95 25.54,188.557 25.54,189.307ZM36.02,189.307C36.02,190.057 35.416,190.663 34.682,190.663C33.947,190.663 33.344,190.052 33.344,189.307C33.344,188.562 33.947,187.95 34.682,187.95C35.416,187.95 36.02,188.557 36.02,189.307ZM35.314,182.47L22.27,182.47C21.511,182.47 20.898,181.844 20.898,181.079L20.898,177.799L20.898,174.13L20.898,173.883L36.686,176.088L36.686,181.075C36.686,181.849 36.068,182.47 35.314,182.47Z" style="fill:rgb(37,37,37);fill-rule:nonzero;"/>
    </g>
</svg>
