<?xml version="1.0" encoding="UTF-8" standalone="no"?>
<!DOCTYPE svg PUBLIC "-//W3C//DTD SVG 1.1//EN" "http://www.w3.org/Graphics/SVG/1.1/DTD/svg11.dtd">
<svg width="100%" height="100%" viewBox="0 0 30 60" version="1.1" xmlns="http://www.w3.org/2000/svg" xmlns:xlink="http://www.w3.org/1999/xlink" xml:space="preserve" xmlns:serif="http://www.serif.com/" style="fill-rule:evenodd;clip-rule:evenodd;stroke-linejoin:round;stroke-miterlimit:1.41421;">
    <g id="bottom" transform="matrix(1.25,0,0,0.9375,-2.5,28.125)">
        <rect x="2" y="2" width="24" height="32" style="fill:none;"/>
    </g>
    <g id="top" transform="matrix(1.25,0,0,0.9375,-2.5,-1.875)">
        <rect x="2" y="2" width="24" height="32" style="fill:none;"/>
    </g>
    <g id="Bucket" transform="matrix(1,0,0,1,-13.9969,-384)">
        <path d="M38.229,401.033L30.551,393.354L30.551,391.219C30.551,388.892 28.659,387 26.332,387C24.006,387 22.114,388.892 22.114,391.219L22.114,396.598L18.376,400.336L18.375,400.337L17.679,401.033C16.766,401.946 16.766,403.433 17.679,404.347L23.645,410.313C24.088,410.756 24.676,411 25.302,411C25.928,411 26.517,410.756 26.96,410.313L27.655,409.618C27.655,409.618 27.655,409.618 27.655,409.617L27.655,409.617L35.44,401.833L37.897,401.833C38.087,401.833 38.258,401.719 38.33,401.544C38.403,401.368 38.363,401.167 38.229,401.033ZM39.054,404.376C38.968,404.239 38.818,404.156 38.656,404.156C38.495,404.156 38.345,404.239 38.259,404.376C37.934,404.895 36.313,407.542 36.313,408.656C36.313,409.948 37.364,411 38.656,411C39.948,411 41,409.948 41,408.656C41,407.542 39.379,404.895 39.054,404.376ZM26.297,409.65C26.031,409.916 25.678,410.062 25.302,410.062C24.927,410.062 24.574,409.916 24.308,409.65L18.342,403.684C17.794,403.136 17.794,402.244 18.342,401.696L18.707,401.331L26.661,409.286L26.297,409.65ZM38.656,410.062C37.881,410.062 37.25,409.431 37.25,408.656C37.25,408.14 37.98,406.693 38.656,405.532C39.333,406.693 40.062,408.14 40.062,408.656C40.062,409.431 39.432,410.062 38.656,410.062ZM36.766,400.895L30.551,394.68L30.551,396.578C30.745,396.646 30.926,396.757 31.081,396.911C31.346,397.176 31.493,397.53 31.493,397.906C31.493,398.281 31.346,398.635 31.08,398.9C30.815,399.166 30.462,399.312 30.086,399.312C29.711,399.312 29.358,399.166 29.092,398.9C28.827,398.634 28.68,398.281 28.68,397.905C28.68,397.53 28.827,397.177 29.092,396.911C29.244,396.759 29.423,396.649 29.613,396.581L29.613,393.743L27.954,392.083L22.914,397.123C22.914,397.123 22.914,397.123 22.914,397.124L19.37,400.668L27.324,408.623L34.914,401.033C35.001,400.946 35.119,400.896 35.246,400.895L36.766,400.895ZM25.625,396.383C25.442,396.2 25.145,396.2 24.962,396.383L20.985,400.36C20.802,400.544 20.802,400.84 20.985,401.023C21.076,401.115 21.196,401.161 21.316,401.161C21.436,401.161 21.556,401.115 21.647,401.023L25.625,397.046C25.808,396.863 25.808,396.566 25.625,396.383ZM29.755,397.574C29.846,397.483 29.966,397.437 30.086,397.437C30.206,397.437 30.326,397.483 30.418,397.574C30.507,397.663 30.555,397.78 30.555,397.906C30.555,398.031 30.507,398.148 30.418,398.237C30.418,398.237 30.418,398.237 30.418,398.237C30.329,398.326 30.212,398.374 30.086,398.374C29.961,398.374 29.844,398.326 29.755,398.237C29.667,398.148 29.618,398.031 29.618,397.905C29.618,397.78 29.667,397.662 29.755,397.574ZM26.951,395.058C26.768,394.874 26.471,394.874 26.288,395.058C26.105,395.24 26.105,395.537 26.288,395.721C26.471,395.903 26.768,395.903 26.951,395.721C27.134,395.537 27.134,395.24 26.951,395.058ZM26.332,387.937C28.142,387.937 29.614,389.409 29.614,391.219L29.614,392.417L28.286,391.089C28.198,391.001 28.079,390.951 27.954,390.951C27.83,390.951 27.711,391.001 27.623,391.089L23.051,395.66L23.051,391.219L23.051,391.219C23.051,389.409 24.523,387.937 26.332,387.937Z" style="fill:rgb(37,37,37);"/>
    </g>
    <g id="Bucket1" serif:id="Bucket" transform="matrix(1,0,0,1,-13.9969,-354)">
        <path d="M38.229,401.033L30.551,393.354L30.551,391.219C30.551,388.892 28.659,387 26.332,387C24.006,387 22.114,388.892 22.114,391.219L22.114,396.598L18.376,400.336L18.375,400.337L17.679,401.033C16.766,401.946 16.766,403.433 17.679,404.347L23.645,410.313C24.088,410.756 24.676,411 25.302,411C25.928,411 26.517,410.756 26.96,410.313L27.655,409.618C27.655,409.618 27.655,409.618 27.655,409.617L27.655,409.617L35.44,401.833L37.897,401.833C38.087,401.833 38.258,401.719 38.33,401.544C38.403,401.368 38.363,401.167 38.229,401.033ZM39.054,404.376C38.968,404.239 38.818,404.156 38.656,404.156C38.495,404.156 38.345,404.239 38.259,404.376C37.934,404.895 36.313,407.542 36.313,408.656C36.313,409.948 37.364,411 38.656,411C39.948,411 41,409.948 41,408.656C41,407.542 39.379,404.895 39.054,404.376ZM26.297,409.65C26.031,409.916 25.678,410.062 25.302,410.062C24.927,410.062 24.574,409.916 24.308,409.65L18.342,403.684C17.794,403.136 17.794,402.244 18.342,401.696L18.707,401.331L26.661,409.286L26.297,409.65ZM38.656,410.062C37.881,410.062 37.25,409.431 37.25,408.656C37.25,408.14 37.98,406.693 38.656,405.532C39.333,406.693 40.062,408.14 40.062,408.656C40.062,409.431 39.432,410.062 38.656,410.062ZM36.766,400.895L30.551,394.68L30.551,396.578C30.745,396.646 30.926,396.757 31.081,396.911C31.346,397.176 31.493,397.53 31.493,397.906C31.493,398.281 31.346,398.635 31.08,398.9C30.815,399.166 30.462,399.312 30.086,399.312C29.711,399.312 29.358,399.166 29.092,398.9C28.827,398.634 28.68,398.281 28.68,397.905C28.68,397.53 28.827,397.177 29.092,396.911C29.244,396.759 29.423,396.649 29.613,396.581L29.613,393.743L27.954,392.083L22.914,397.123C22.914,397.123 22.914,397.123 22.914,397.124L19.37,400.668L27.324,408.623L34.914,401.033C35.001,400.946 35.119,400.896 35.246,400.895L36.766,400.895ZM25.625,396.383C25.442,396.2 25.145,396.2 24.962,396.383L20.985,400.36C20.802,400.544 20.802,400.84 20.985,401.023C21.076,401.115 21.196,401.161 21.316,401.161C21.436,401.161 21.556,401.115 21.647,401.023L25.625,397.046C25.808,396.863 25.808,396.566 25.625,396.383ZM29.755,397.574C29.846,397.483 29.966,397.437 30.086,397.437C30.206,397.437 30.326,397.483 30.418,397.574C30.507,397.663 30.555,397.78 30.555,397.906C30.555,398.031 30.507,398.148 30.418,398.237C30.418,398.237 30.418,398.237 30.418,398.237C30.329,398.326 30.212,398.374 30.086,398.374C29.961,398.374 29.844,398.326 29.755,398.237C29.667,398.148 29.618,398.031 29.618,397.905C29.618,397.78 29.667,397.662 29.755,397.574ZM26.951,395.058C26.768,394.874 26.471,394.874 26.288,395.058C26.105,395.24 26.105,395.537 26.288,395.721C26.471,395.903 26.768,395.903 26.951,395.721C27.134,395.537 27.134,395.24 26.951,395.058ZM26.332,387.937C28.142,387.937 29.614,389.409 29.614,391.219L29.614,392.417L28.286,391.089C28.198,391.001 28.079,390.951 27.954,390.951C27.83,390.951 27.711,391.001 27.623,391.089L23.051,395.66L23.051,391.219L23.051,391.219C23.051,389.409 24.523,387.937 26.332,387.937Z" style="fill:white;"/>
    </g>
</svg>
