<?xml version="1.0" encoding="UTF-8" standalone="no"?>
<!DOCTYPE svg PUBLIC "-//W3C//DTD SVG 1.1//EN" "http://www.w3.org/Graphics/SVG/1.1/DTD/svg11.dtd">
<svg width="100%" height="100%" viewBox="0 0 30 60" version="1.1" xmlns="http://www.w3.org/2000/svg" xmlns:xlink="http://www.w3.org/1999/xlink" xml:space="preserve" xmlns:serif="http://www.serif.com/" style="fill-rule:evenodd;clip-rule:evenodd;stroke-linejoin:round;stroke-miterlimit:1.41421;">
    <g id="bottom" transform="matrix(1.25,0,0,0.9375,-2.5,28.125)">
        <rect x="2" y="2" width="24" height="32" style="fill:none;"/>
    </g>
    <g id="top" transform="matrix(1.25,0,0,0.9375,-2.5,-1.875)">
        <rect x="2" y="2" width="24" height="32" style="fill:none;"/>
    </g>
    <g id="Admin" transform="matrix(1,0,0,1,-13,-607.5)">
        <path d="M39,632.396L39,631.173C39,629.926 38.415,628.726 37.439,627.969C35.166,626.209 32.85,624.982 32.039,624.572L32.039,623.175C32.204,622.808 32.341,622.408 32.445,621.975C33.048,621.759 33.379,620.875 33.6,620.094C33.897,619.054 33.864,618.325 33.515,617.92C33.883,615.921 33.718,614.448 33.03,613.54C32.666,613.065 32.242,612.863 31.959,612.774C31.756,612.491 31.346,612.016 30.653,611.635C29.936,611.212 29.129,611 28.243,611C28.083,611 27.922,611.009 27.781,611.019C27.384,611.037 26.993,611.113 26.606,611.24C26.602,611.24 26.597,611.245 26.592,611.245C26.168,611.39 25.753,611.602 25.352,611.875C24.894,612.167 24.475,612.515 24.112,612.9C23.4,613.63 22.928,614.453 22.725,615.333C22.532,616.062 22.518,616.796 22.678,617.516C22.593,617.577 22.518,617.647 22.452,617.732C22.126,618.16 22.112,618.833 22.4,619.854C22.598,620.559 22.862,621.279 23.31,621.604C23.442,622.281 23.664,622.897 23.961,623.443L23.961,624.577C23.15,624.986 20.834,626.209 18.561,627.973C17.585,628.731 17,629.926 17,631.177L17,632.4C17,633.285 17.721,634 18.603,634L37.397,634C38.278,634 39,633.28 39,632.396ZM18.151,632.396L18.151,631.173C18.151,630.279 18.566,629.422 19.264,628.882C21.716,626.986 24.211,625.734 24.687,625.504C24.951,625.377 25.116,625.113 25.116,624.817L25.116,623.288C25.116,623.184 25.088,623.086 25.036,622.996C24.725,622.469 24.508,621.839 24.399,621.119C24.362,620.889 24.192,620.705 23.97,620.649C23.909,620.578 23.734,620.324 23.513,619.538C23.329,618.889 23.343,618.588 23.362,618.48C23.546,618.489 23.73,618.405 23.848,618.259C23.97,618.104 24.003,617.897 23.937,617.713C23.692,617.031 23.664,616.33 23.852,615.615C24.013,614.928 24.38,614.288 24.951,613.705C25.258,613.376 25.611,613.089 25.989,612.849C25.993,612.844 26.003,612.839 26.007,612.835C26.323,612.614 26.654,612.449 26.979,612.336C26.984,612.336 26.988,612.331 26.988,612.331C27.267,612.237 27.554,612.185 27.856,612.171C28.681,612.101 29.422,612.256 30.077,612.637C30.794,613.032 31.087,613.55 31.087,613.55C31.176,613.733 31.337,613.841 31.544,613.855C31.558,613.855 31.865,613.903 32.129,614.274C32.407,614.669 32.803,615.685 32.308,618.057C32.251,618.32 32.388,618.583 32.629,618.696C32.652,618.781 32.69,619.068 32.487,619.783C32.308,620.413 32.162,620.7 32.077,620.827C31.968,620.809 31.855,620.818 31.752,620.865C31.572,620.94 31.44,621.105 31.407,621.293C31.308,621.858 31.148,622.366 30.94,622.799C30.903,622.879 30.884,622.963 30.884,623.048L30.884,624.817C30.884,625.113 31.049,625.372 31.313,625.504C31.789,625.734 34.284,626.99 36.732,628.882C37.43,629.422 37.845,630.279 37.845,631.173L37.845,632.396C37.845,632.64 37.642,632.843 37.397,632.843L18.603,632.843C18.353,632.847 18.151,632.645 18.151,632.396Z" style="fill:rgb(37,37,37);fill-rule:nonzero;"/>
    </g>
    <g id="Admin1" serif:id="Admin" transform="matrix(1,0,0,1,-13,-577.5)">
        <path d="M39,632.396L39,631.173C39,629.926 38.415,628.726 37.439,627.969C35.166,626.209 32.85,624.982 32.039,624.572L32.039,623.175C32.204,622.808 32.341,622.408 32.445,621.975C33.048,621.759 33.379,620.875 33.6,620.094C33.897,619.054 33.864,618.325 33.515,617.92C33.883,615.921 33.718,614.448 33.03,613.54C32.666,613.065 32.242,612.863 31.959,612.774C31.756,612.491 31.346,612.016 30.653,611.635C29.936,611.212 29.129,611 28.243,611C28.083,611 27.922,611.009 27.781,611.019C27.384,611.037 26.993,611.113 26.606,611.24C26.602,611.24 26.597,611.245 26.592,611.245C26.168,611.39 25.753,611.602 25.352,611.875C24.894,612.167 24.475,612.515 24.112,612.9C23.4,613.63 22.928,614.453 22.725,615.333C22.532,616.062 22.518,616.796 22.678,617.516C22.593,617.577 22.518,617.647 22.452,617.732C22.126,618.16 22.112,618.833 22.4,619.854C22.598,620.559 22.862,621.279 23.31,621.604C23.442,622.281 23.664,622.897 23.961,623.443L23.961,624.577C23.15,624.986 20.834,626.209 18.561,627.973C17.585,628.731 17,629.926 17,631.177L17,632.4C17,633.285 17.721,634 18.603,634L37.397,634C38.278,634 39,633.28 39,632.396ZM18.151,632.396L18.151,631.173C18.151,630.279 18.566,629.422 19.264,628.882C21.716,626.986 24.211,625.734 24.687,625.504C24.951,625.377 25.116,625.113 25.116,624.817L25.116,623.288C25.116,623.184 25.088,623.086 25.036,622.996C24.725,622.469 24.508,621.839 24.399,621.119C24.362,620.889 24.192,620.705 23.97,620.649C23.909,620.578 23.734,620.324 23.513,619.538C23.329,618.889 23.343,618.588 23.362,618.48C23.546,618.489 23.73,618.405 23.848,618.259C23.97,618.104 24.003,617.897 23.937,617.713C23.692,617.031 23.664,616.33 23.852,615.615C24.013,614.928 24.38,614.288 24.951,613.705C25.258,613.376 25.611,613.089 25.989,612.849C25.993,612.844 26.003,612.839 26.007,612.835C26.323,612.614 26.654,612.449 26.979,612.336C26.984,612.336 26.988,612.331 26.988,612.331C27.267,612.237 27.554,612.185 27.856,612.171C28.681,612.101 29.422,612.256 30.077,612.637C30.794,613.032 31.087,613.55 31.087,613.55C31.176,613.733 31.337,613.841 31.544,613.855C31.558,613.855 31.865,613.903 32.129,614.274C32.407,614.669 32.803,615.685 32.308,618.057C32.251,618.32 32.388,618.583 32.629,618.696C32.652,618.781 32.69,619.068 32.487,619.783C32.308,620.413 32.162,620.7 32.077,620.827C31.968,620.809 31.855,620.818 31.752,620.865C31.572,620.94 31.44,621.105 31.407,621.293C31.308,621.858 31.148,622.366 30.94,622.799C30.903,622.879 30.884,622.963 30.884,623.048L30.884,624.817C30.884,625.113 31.049,625.372 31.313,625.504C31.789,625.734 34.284,626.99 36.732,628.882C37.43,629.422 37.845,630.279 37.845,631.173L37.845,632.396C37.845,632.64 37.642,632.843 37.397,632.843L18.603,632.843C18.353,632.847 18.151,632.645 18.151,632.396Z" style="fill:white;fill-rule:nonzero;"/>
    </g>
</svg>
