<?xml version="1.0" encoding="UTF-8" standalone="no"?>
<!DOCTYPE svg PUBLIC "-//W3C//DTD SVG 1.1//EN" "http://www.w3.org/Graphics/SVG/1.1/DTD/svg11.dtd">
<svg width="100%" height="100%" viewBox="0 0 24 24" version="1.1" xmlns="http://www.w3.org/2000/svg" xmlns:xlink="http://www.w3.org/1999/xlink" xml:space="preserve" xmlns:serif="http://www.serif.com/" style="fill-rule:evenodd;clip-rule:evenodd;stroke-linejoin:round;stroke-miterlimit:1.41421;">
    <g id="Back-arrow" serif:id="Back arrow" transform="matrix(1,0,0,1,-1448.5,-93.9998)">
        <path d="M1457.55,100.18C1457.78,99.94 1458.17,99.94 1458.41,100.18C1458.64,100.413 1458.64,100.8 1458.41,101.032L1454.07,105.393L1468.4,105.393C1468.73,105.393 1469,105.66 1469,105.996C1469,106.331 1468.73,106.606 1468.4,106.606L1454.07,106.606L1458.41,110.96C1458.64,111.2 1458.64,111.588 1458.41,111.82C1458.17,112.06 1457.78,112.06 1457.55,111.82L1452.18,106.426C1451.94,106.193 1451.94,105.806 1452.18,105.574L1457.55,100.18Z" style="fill:rgb(93,37,113);fill-rule:nonzero;"/>
    </g>
</svg>
