<?xml version="1.0" encoding="UTF-8" standalone="no"?>
<!DOCTYPE svg PUBLIC "-//W3C//DTD SVG 1.1//EN" "http://www.w3.org/Graphics/SVG/1.1/DTD/svg11.dtd">
<svg width="100%" height="100%" viewBox="0 0 30 60" version="1.1" xmlns="http://www.w3.org/2000/svg" xmlns:xlink="http://www.w3.org/1999/xlink" xml:space="preserve" xmlns:serif="http://www.serif.com/" style="fill-rule:evenodd;clip-rule:evenodd;stroke-linejoin:round;stroke-miterlimit:1.41421;">
    <g id="Delete-copy-5" serif:id="Delete copy 5" transform="matrix(1,0,0,1,-1475.5,-448.995)">
        <path d="M1492.2,455.991C1492.48,455.991 1492.76,456.081 1493.04,456.262C1493.32,456.443 1493.51,456.662 1493.61,456.919L1494.36,458.66L1497.64,458.66C1497.74,458.66 1497.82,458.692 1497.88,458.754C1497.95,458.817 1497.98,458.897 1497.98,458.994L1497.98,459.662C1497.98,459.759 1497.95,459.839 1497.88,459.901C1497.82,459.964 1497.74,459.995 1497.64,459.995L1496.62,459.995L1496.62,469.882C1496.62,470.459 1496.45,470.957 1496.12,471.378C1495.79,471.799 1495.39,472.009 1494.92,472.009L1486.08,472.009C1485.61,472.009 1485.21,471.806 1484.88,471.399C1484.55,470.992 1484.38,470.5 1484.38,469.923L1484.38,459.995L1483.36,459.995C1483.26,459.995 1483.18,459.964 1483.11,459.901C1483.05,459.839 1483.02,459.759 1483.02,459.662L1483.02,458.994C1483.02,458.897 1483.05,458.817 1483.11,458.754C1483.18,458.692 1483.26,458.661 1483.36,458.66L1486.64,458.66L1487.39,456.919C1487.49,456.662 1487.68,456.443 1487.96,456.262C1488.24,456.081 1488.52,455.991 1488.8,455.991L1492.2,455.991ZM1494.92,470.674C1494.94,470.673 1494.98,470.643 1495.03,470.585C1495.09,470.526 1495.14,470.432 1495.19,470.304C1495.24,470.175 1495.26,470.035 1495.26,469.882L1495.26,459.995L1485.74,459.995L1485.74,469.882C1485.74,470.034 1485.76,470.175 1485.81,470.304C1485.86,470.432 1485.91,470.526 1485.97,470.585C1486.02,470.645 1486.06,470.674 1486.08,470.674L1494.92,470.674ZM1490.84,461.998C1490.94,461.998 1491.02,462.029 1491.08,462.091C1491.15,462.154 1491.18,462.234 1491.18,462.331L1491.18,468.338C1491.18,468.436 1491.15,468.515 1491.08,468.578C1491.02,468.641 1490.94,468.672 1490.84,468.672L1490.16,468.672C1490.06,468.672 1489.98,468.641 1489.91,468.578C1489.85,468.515 1489.82,468.436 1489.82,468.338L1489.82,462.331C1489.82,462.234 1489.85,462.154 1489.91,462.091C1489.98,462.029 1490.06,461.998 1490.16,461.998L1490.84,461.998ZM1493.56,461.998C1493.66,461.998 1493.74,462.029 1493.81,462.091C1493.87,462.154 1493.9,462.234 1493.9,462.331L1493.9,468.338C1493.9,468.436 1493.87,468.515 1493.81,468.578C1493.74,468.641 1493.66,468.672 1493.56,468.672L1492.88,468.672C1492.78,468.672 1492.7,468.641 1492.64,468.578C1492.57,468.515 1492.54,468.436 1492.54,468.338L1492.54,462.331C1492.54,462.234 1492.57,462.154 1492.64,462.091C1492.7,462.029 1492.78,461.998 1492.88,461.998L1493.56,461.998ZM1488.12,461.998C1488.22,461.998 1488.3,462.029 1488.36,462.091C1488.43,462.154 1488.46,462.234 1488.46,462.331L1488.46,468.338C1488.46,468.436 1488.43,468.515 1488.36,468.578C1488.3,468.641 1488.22,468.672 1488.12,468.672L1487.44,468.672C1487.34,468.672 1487.26,468.641 1487.19,468.578C1487.13,468.515 1487.1,468.436 1487.1,468.338L1487.1,462.331C1487.1,462.234 1487.13,462.154 1487.19,462.091C1487.26,462.029 1487.34,461.998 1487.44,461.998L1488.12,461.998ZM1492.88,458.66L1492.37,457.44C1492.32,457.378 1492.26,457.339 1492.19,457.326L1488.82,457.326C1488.75,457.339 1488.69,457.378 1488.64,457.44L1488.12,458.66L1492.88,458.66Z" style="fill:rgb(101,101,101);"/>
    </g>
    <g id="Delete-copy-51" serif:id="Delete copy 5" transform="matrix(1,0,0,1,-1475.5,-418.995)">
        <path d="M1492.2,455.991C1492.48,455.991 1492.76,456.081 1493.04,456.262C1493.32,456.443 1493.51,456.662 1493.61,456.919L1494.36,458.66L1497.64,458.66C1497.74,458.66 1497.82,458.692 1497.88,458.754C1497.95,458.817 1497.98,458.897 1497.98,458.994L1497.98,459.662C1497.98,459.759 1497.95,459.839 1497.88,459.901C1497.82,459.964 1497.74,459.995 1497.64,459.995L1496.62,459.995L1496.62,469.882C1496.62,470.459 1496.45,470.957 1496.12,471.378C1495.79,471.799 1495.39,472.009 1494.92,472.009L1486.08,472.009C1485.61,472.009 1485.21,471.806 1484.88,471.399C1484.55,470.992 1484.38,470.5 1484.38,469.923L1484.38,459.995L1483.36,459.995C1483.26,459.995 1483.18,459.964 1483.11,459.901C1483.05,459.839 1483.02,459.759 1483.02,459.662L1483.02,458.994C1483.02,458.897 1483.05,458.817 1483.11,458.754C1483.18,458.692 1483.26,458.661 1483.36,458.66L1486.64,458.66L1487.39,456.919C1487.49,456.662 1487.68,456.443 1487.96,456.262C1488.24,456.081 1488.52,455.991 1488.8,455.991L1492.2,455.991ZM1494.92,470.674C1494.94,470.673 1494.98,470.643 1495.03,470.585C1495.09,470.526 1495.14,470.432 1495.19,470.304C1495.24,470.175 1495.26,470.035 1495.26,469.882L1495.26,459.995L1485.74,459.995L1485.74,469.882C1485.74,470.034 1485.76,470.175 1485.81,470.304C1485.86,470.432 1485.91,470.526 1485.97,470.585C1486.02,470.645 1486.06,470.674 1486.08,470.674L1494.92,470.674ZM1490.84,461.998C1490.94,461.998 1491.02,462.029 1491.08,462.091C1491.15,462.154 1491.18,462.234 1491.18,462.331L1491.18,468.338C1491.18,468.436 1491.15,468.515 1491.08,468.578C1491.02,468.641 1490.94,468.672 1490.84,468.672L1490.16,468.672C1490.06,468.672 1489.98,468.641 1489.91,468.578C1489.85,468.515 1489.82,468.436 1489.82,468.338L1489.82,462.331C1489.82,462.234 1489.85,462.154 1489.91,462.091C1489.98,462.029 1490.06,461.998 1490.16,461.998L1490.84,461.998ZM1493.56,461.998C1493.66,461.998 1493.74,462.029 1493.81,462.091C1493.87,462.154 1493.9,462.234 1493.9,462.331L1493.9,468.338C1493.9,468.436 1493.87,468.515 1493.81,468.578C1493.74,468.641 1493.66,468.672 1493.56,468.672L1492.88,468.672C1492.78,468.672 1492.7,468.641 1492.64,468.578C1492.57,468.515 1492.54,468.436 1492.54,468.338L1492.54,462.331C1492.54,462.234 1492.57,462.154 1492.64,462.091C1492.7,462.029 1492.78,461.998 1492.88,461.998L1493.56,461.998ZM1488.12,461.998C1488.22,461.998 1488.3,462.029 1488.36,462.091C1488.43,462.154 1488.46,462.234 1488.46,462.331L1488.46,468.338C1488.46,468.436 1488.43,468.515 1488.36,468.578C1488.3,468.641 1488.22,468.672 1488.12,468.672L1487.44,468.672C1487.34,468.672 1487.26,468.641 1487.19,468.578C1487.13,468.515 1487.1,468.436 1487.1,468.338L1487.1,462.331C1487.1,462.234 1487.13,462.154 1487.19,462.091C1487.26,462.029 1487.34,461.998 1487.44,461.998L1488.12,461.998ZM1492.88,458.66L1492.37,457.44C1492.32,457.378 1492.26,457.339 1492.19,457.326L1488.82,457.326C1488.75,457.339 1488.69,457.378 1488.64,457.44L1488.12,458.66L1492.88,458.66Z" style="fill:white;"/>
    </g>
</svg>
