<?xml version="1.0" encoding="UTF-8" standalone="no"?>
<!DOCTYPE svg PUBLIC "-//W3C//DTD SVG 1.1//EN" "http://www.w3.org/Graphics/SVG/1.1/DTD/svg11.dtd">
<svg width="100%" height="100%" viewBox="0 0 30 60" version="1.1" xmlns="http://www.w3.org/2000/svg" xmlns:xlink="http://www.w3.org/1999/xlink" xml:space="preserve" xmlns:serif="http://www.serif.com/" style="fill-rule:evenodd;clip-rule:evenodd;stroke-linejoin:round;stroke-miterlimit:1.41421;">
    <g id="bottom" transform="matrix(1.25,0,0,0.9375,-2.5,28.125)">
        <rect x="2" y="2" width="24" height="32" style="fill:none;"/>
    </g>
    <g id="top" transform="matrix(1.25,0,0,0.9375,-2.5,-1.875)">
        <rect x="2" y="2" width="24" height="32" style="fill:none;"/>
    </g>
    <g id="Grit" transform="matrix(1,0,0,1,-13.4903,-440.501)">
        <path d="M41.45,461.563L16.464,461.563L20.345,452.426C21.016,450.845 22.186,449.781 23.555,449.507C24.923,449.233 26.283,449.79 27.286,451.036L29.02,453.188C29.691,454.021 30.605,454.433 31.527,454.318C32.449,454.204 33.286,453.574 33.825,452.59L33.858,452.53C34.095,452.097 34.463,451.856 34.871,451.864C35.278,451.874 35.64,452.133 35.865,452.576L39.066,458.883C39.233,459.213 39.575,459.304 39.828,459.084C40.081,458.865 40.15,458.42 39.982,458.089L36.782,451.783C36.36,450.952 35.653,450.446 34.891,450.428C34.127,450.409 33.408,450.883 32.964,451.694L32.931,451.754C32.577,452.4 32.028,452.813 31.422,452.888C30.817,452.963 30.218,452.693 29.777,452.146L28.044,449.995C26.792,448.441 25.095,447.745 23.388,448.087C21.681,448.429 20.221,449.757 19.383,451.729L15.05,461.933C14.955,462.155 14.958,462.427 15.057,462.646C15.156,462.865 15.336,463 15.531,463L41.45,463C41.754,463 42,462.678 42,462.281C42,461.885 41.754,461.563 41.45,461.563Z" style="fill:rgb(37,37,37);fill-rule:nonzero;"/>
    </g>
    <g id="Grit1" serif:id="Grit" transform="matrix(1,0,0,1,-13.4903,-410.501)">
        <path d="M41.45,461.563L16.464,461.563L20.345,452.426C21.016,450.845 22.186,449.781 23.555,449.507C24.923,449.233 26.283,449.79 27.286,451.036L29.02,453.188C29.691,454.021 30.605,454.433 31.527,454.318C32.449,454.204 33.286,453.574 33.825,452.59L33.858,452.53C34.095,452.097 34.463,451.856 34.871,451.864C35.278,451.874 35.64,452.133 35.865,452.576L39.066,458.883C39.233,459.213 39.575,459.304 39.828,459.084C40.081,458.865 40.15,458.42 39.982,458.089L36.782,451.783C36.36,450.952 35.653,450.446 34.891,450.428C34.127,450.409 33.408,450.883 32.964,451.694L32.931,451.754C32.577,452.4 32.028,452.813 31.422,452.888C30.817,452.963 30.218,452.693 29.777,452.146L28.044,449.995C26.792,448.441 25.095,447.745 23.388,448.087C21.681,448.429 20.221,449.757 19.383,451.729L15.05,461.933C14.955,462.155 14.958,462.427 15.057,462.646C15.156,462.865 15.336,463 15.531,463L41.45,463C41.754,463 42,462.678 42,462.281C42,461.885 41.754,461.563 41.45,461.563Z" style="fill:white;fill-rule:nonzero;"/>
    </g>
</svg>
