<?xml version="1.0" encoding="UTF-8" standalone="no"?>
<!DOCTYPE svg PUBLIC "-//W3C//DTD SVG 1.1//EN" "http://www.w3.org/Graphics/SVG/1.1/DTD/svg11.dtd">
<svg width="100%" height="100%" viewBox="0 0 30 60" version="1.1" xmlns="http://www.w3.org/2000/svg" xmlns:xlink="http://www.w3.org/1999/xlink" xml:space="preserve" xmlns:serif="http://www.serif.com/" style="fill-rule:evenodd;clip-rule:evenodd;stroke-linejoin:round;stroke-miterlimit:1.41421;">
    <g id="Edit-copy-5" serif:id="Edit copy 5" transform="matrix(1,0,0,1,-1436.99,-450)">
        <path d="M1459.82,461.202L1457.8,459.187L1457.8,459.185L1455.79,457.17C1455.68,457.061 1455.53,457 1455.38,457C1455.22,457 1455.07,457.061 1454.96,457.17L1445.2,466.928C1445.12,467.009 1445.07,467.11 1445.04,467.221L1443.99,472.303C1443.95,472.494 1444.01,472.692 1444.15,472.83C1444.26,472.94 1444.41,473 1444.56,473C1444.6,473 1444.64,472.996 1444.68,472.988L1449.76,471.939C1449.87,471.916 1449.98,471.861 1450.06,471.781L1459.82,462.022C1460.05,461.796 1460.05,461.429 1459.82,461.202ZM1445.96,468.509L1448.48,471.021L1445.31,471.674L1445.96,468.509ZM1449.64,470.551L1446.43,467.338L1455.38,458.399L1456.57,459.596L1451.16,465.005C1450.93,465.232 1450.93,465.599 1451.16,465.825C1451.27,465.938 1451.42,465.995 1451.57,465.995C1451.72,465.995 1451.87,465.938 1451.98,465.825L1457.39,460.416L1458.59,461.612L1449.64,470.551Z" style="fill:rgb(101,101,101);fill-rule:nonzero;"/>
    </g>
    <g id="Edit-copy-51" serif:id="Edit copy 5" transform="matrix(1,0,0,1,-1436.99,-420)">
        <path d="M1459.82,461.202L1457.8,459.187L1457.8,459.185L1455.79,457.17C1455.68,457.061 1455.53,457 1455.38,457C1455.22,457 1455.07,457.061 1454.96,457.17L1445.2,466.928C1445.12,467.009 1445.07,467.11 1445.04,467.221L1443.99,472.303C1443.95,472.494 1444.01,472.692 1444.15,472.83C1444.26,472.94 1444.41,473 1444.56,473C1444.6,473 1444.64,472.996 1444.68,472.988L1449.76,471.939C1449.87,471.916 1449.98,471.861 1450.06,471.781L1459.82,462.022C1460.05,461.796 1460.05,461.429 1459.82,461.202ZM1445.96,468.509L1448.48,471.021L1445.31,471.674L1445.96,468.509ZM1449.64,470.551L1446.43,467.338L1455.38,458.399L1456.57,459.596L1451.16,465.005C1450.93,465.232 1450.93,465.599 1451.16,465.825C1451.27,465.938 1451.42,465.995 1451.57,465.995C1451.72,465.995 1451.87,465.938 1451.98,465.825L1457.39,460.416L1458.59,461.612L1449.64,470.551Z" style="fill:white;fill-rule:nonzero;"/>
    </g>
</svg>
