<?xml version="1.0" encoding="UTF-8" standalone="no"?>
<!DOCTYPE svg PUBLIC "-//W3C//DTD SVG 1.1//EN" "http://www.w3.org/Graphics/SVG/1.1/DTD/svg11.dtd">
<svg width="100%" height="100%" viewBox="0 0 24 24" version="1.1" xmlns="http://www.w3.org/2000/svg" xmlns:xlink="http://www.w3.org/1999/xlink" xml:space="preserve" xmlns:serif="http://www.serif.com/" style="fill-rule:evenodd;clip-rule:evenodd;stroke-linejoin:round;stroke-miterlimit:1.41421;">
    <g id="Forma-1-copy" serif:id="Forma 1 copy" transform="matrix(1,0,0,1,-1403,-95.9994)">
        <path d="M1421,107L1416,107L1416,102.001C1416,101.449 1415.55,101 1415,101C1414.45,101 1414,101.449 1414,102.001L1414,107L1409,107C1408.45,107 1408,107.448 1408,107.999C1408,108.551 1408.45,108.999 1409,108.999L1414,108.999L1414,113.998C1414,114.55 1414.45,114.998 1415,114.998C1415.55,114.998 1416,114.55 1416,113.998L1416,108.999L1421,108.999C1421.55,108.999 1422,108.551 1422,107.999C1422,107.448 1421.55,107 1421,107Z" style="fill:white;fill-rule:nonzero;"/>
    </g>
</svg>
