<?xml version="1.0" encoding="UTF-8" standalone="no"?>
<!DOCTYPE svg PUBLIC "-//W3C//DTD SVG 1.1//EN" "http://www.w3.org/Graphics/SVG/1.1/DTD/svg11.dtd">
<svg width="100%" height="100%" viewBox="0 0 30 60" version="1.1" xmlns="http://www.w3.org/2000/svg" xmlns:xlink="http://www.w3.org/1999/xlink" xml:space="preserve" xmlns:serif="http://www.serif.com/" style="fill-rule:evenodd;clip-rule:evenodd;stroke-linejoin:round;stroke-miterlimit:1.41421;">
    <g transform="matrix(1,0,0,1,-1428,-351)">
        <path id="save" d="M1450.8,362.412C1450.66,362.079 1450.49,361.815 1450.3,361.62L1447.38,358.7C1447.18,358.505 1446.92,358.339 1446.59,358.199C1446.25,358.06 1445.95,357.991 1445.67,357.991L1435.99,357.991C1435.71,357.991 1435.48,358.088 1435.28,358.283C1435.09,358.477 1434.99,358.714 1434.99,358.992L1434.99,373.008C1434.99,373.286 1435.09,373.522 1435.28,373.717C1435.48,373.912 1435.71,374.009 1435.99,374.009L1450.01,374.009C1450.29,374.009 1450.52,373.912 1450.72,373.717C1450.91,373.522 1451.01,373.286 1451.01,373.008L1451.01,363.33C1451.01,363.052 1450.94,362.746 1450.8,362.412ZM1439,359.326L1444,359.326C1444.09,359.326 1444.17,359.359 1444.24,359.425C1444.3,359.491 1444.34,359.569 1444.34,359.659L1444.34,362.996C1444.34,363.087 1444.3,363.165 1444.24,363.231C1444.17,363.297 1444.09,363.33 1444,363.33L1439,363.33C1438.91,363.33 1438.83,363.297 1438.76,363.231C1438.7,363.165 1438.66,363.087 1438.66,362.996L1438.66,359.659M1447.01,372.674L1439,372.674L1439,368.67L1447.01,368.67L1447.01,372.674ZM1449.67,372.674L1448.34,372.674L1448.34,372.674L1448.34,368.336C1448.34,368.058 1448.24,367.821 1448.05,367.627C1447.85,367.432 1447.62,367.335 1447.34,367.335L1438.66,367.335C1438.38,367.335 1438.15,367.432 1437.95,367.627C1437.76,367.821 1437.66,368.058 1437.66,368.336L1437.66,372.674L1436.33,372.674L1436.33,359.326L1437.66,359.326L1437.66,363.664C1437.66,363.942 1437.76,364.178 1437.95,364.373C1438.15,364.568 1438.38,364.665 1438.66,364.665L1444.67,364.665C1444.95,364.665 1445.18,364.568 1445.38,364.373C1445.57,364.178 1445.67,363.942 1445.67,363.664L1445.67,359.326C1445.77,359.326 1445.91,359.36 1446.08,359.43C1446.24,359.499 1446.36,359.569 1446.43,359.638L1449.36,362.569C1449.43,362.638 1449.5,362.758 1449.57,362.929C1449.64,363.099 1449.67,363.233 1449.67,363.33L1449.67,372.674Z" style="fill:rgb(89,89,89);fill-rule:nonzero;"/>
    </g>
    <g transform="matrix(1,0,0,1,-1428,-321)">
        <path id="save1" serif:id="save" d="M1450.8,362.412C1450.66,362.079 1450.49,361.815 1450.3,361.62L1447.38,358.7C1447.18,358.505 1446.92,358.339 1446.59,358.199C1446.25,358.06 1445.95,357.991 1445.67,357.991L1435.99,357.991C1435.71,357.991 1435.48,358.088 1435.28,358.283C1435.09,358.477 1434.99,358.714 1434.99,358.992L1434.99,373.008C1434.99,373.286 1435.09,373.522 1435.28,373.717C1435.48,373.912 1435.71,374.009 1435.99,374.009L1450.01,374.009C1450.29,374.009 1450.52,373.912 1450.72,373.717C1450.91,373.522 1451.01,373.286 1451.01,373.008L1451.01,363.33C1451.01,363.052 1450.94,362.746 1450.8,362.412ZM1439,359.326L1444,359.326C1444.09,359.326 1444.17,359.359 1444.24,359.425C1444.3,359.491 1444.34,359.569 1444.34,359.659L1444.34,362.996C1444.34,363.087 1444.3,363.165 1444.24,363.231C1444.17,363.297 1444.09,363.33 1444,363.33L1439,363.33C1438.91,363.33 1438.83,363.297 1438.76,363.231C1438.7,363.165 1438.66,363.087 1438.66,362.996L1438.66,359.659M1447.01,372.674L1439,372.674L1439,368.67L1447.01,368.67L1447.01,372.674ZM1449.67,372.674L1448.34,372.674L1448.34,372.674L1448.34,368.336C1448.34,368.058 1448.24,367.821 1448.05,367.627C1447.85,367.432 1447.62,367.335 1447.34,367.335L1438.66,367.335C1438.38,367.335 1438.15,367.432 1437.95,367.627C1437.76,367.821 1437.66,368.058 1437.66,368.336L1437.66,372.674L1436.33,372.674L1436.33,359.326L1437.66,359.326L1437.66,363.664C1437.66,363.942 1437.76,364.178 1437.95,364.373C1438.15,364.568 1438.38,364.665 1438.66,364.665L1444.67,364.665C1444.95,364.665 1445.18,364.568 1445.38,364.373C1445.57,364.178 1445.67,363.942 1445.67,363.664L1445.67,359.326C1445.77,359.326 1445.91,359.36 1446.08,359.43C1446.24,359.499 1446.36,359.569 1446.43,359.638L1449.36,362.569C1449.43,362.638 1449.5,362.758 1449.57,362.929C1449.64,363.099 1449.67,363.233 1449.67,363.33L1449.67,372.674Z" style="fill:white;fill-rule:nonzero;"/>
    </g>
</svg>
