<?xml version="1.0" encoding="UTF-8" standalone="no"?>
<!DOCTYPE svg PUBLIC "-//W3C//DTD SVG 1.1//EN" "http://www.w3.org/Graphics/SVG/1.1/DTD/svg11.dtd">
<svg width="100%" height="100%" viewBox="0 0 30 60" version="1.1" xmlns="http://www.w3.org/2000/svg" xmlns:xlink="http://www.w3.org/1999/xlink" xml:space="preserve" xmlns:serif="http://www.serif.com/" style="fill-rule:evenodd;clip-rule:evenodd;stroke-linejoin:round;stroke-miterlimit:1.41421;">
    <g id="bottom" transform="matrix(1.25,0,0,0.9375,-2.5,28.125)">
        <rect x="2" y="2" width="24" height="32" style="fill:none;"/>
    </g>
    <g id="top" transform="matrix(1.25,0,0,0.9375,-2.5,-1.875)">
        <rect x="2" y="2" width="24" height="32" style="fill:none;"/>
    </g>
    <g id="Dashboard" transform="matrix(1,0,0,1,-11.0008,-109.988)">
        <path d="M17.86,133.954C16.682,132.109 16.001,129.905 16.001,127.534C16.001,121.156 20.927,115.986 27.004,115.986C33.084,115.986 38.012,121.156 38.01,127.535C38.01,129.912 37.324,132.12 36.153,133.954L34.656,133.954C34.665,133.943 34.675,133.93 34.682,133.919L32.825,131.968L33.812,130.93L35.482,132.681C36.321,131.167 36.808,129.414 36.808,127.535L36.794,127.272L34.527,127.272L34.527,125.805L36.656,125.803C36.377,124.078 35.695,122.503 34.707,121.186L33.161,122.807L32.171,121.769L33.764,120.095C32.109,118.438 29.904,117.391 27.464,117.274L27.464,119.936L26.064,119.937L26.063,117.298C23.879,117.517 21.909,118.495 20.381,119.97L21.938,121.603L20.949,122.641L19.412,121.031C18.364,122.378 17.644,124.012 17.354,125.802L19.404,125.802L19.404,127.27L17.216,127.272C17.214,127.362 17.205,127.445 17.205,127.534C17.205,129.42 17.697,131.184 18.542,132.703L20.32,131.072L21.241,132.178L19.334,133.926C19.342,133.933 19.347,133.946 19.355,133.954L19.302,133.954L19.263,133.99L19.234,133.954L17.86,133.954ZM27.387,129.439C27.935,129.439 28.38,128.97 28.38,128.394C28.38,127.82 27.935,127.354 27.387,127.354L22.888,123.882L26.394,128.462C26.427,129.007 26.86,129.439 27.387,129.439Z" style="fill:rgb(37,37,37);"/>
    </g>
    <g id="Dashboard1" serif:id="Dashboard" transform="matrix(1,0,0,1,-12.0055,-79.9884)">
        <path d="M17.86,133.954C16.682,132.109 16.001,129.905 16.001,127.534C16.001,121.156 20.927,115.986 27.004,115.986C33.084,115.986 38.012,121.156 38.01,127.535C38.01,129.912 37.324,132.12 36.153,133.954L34.656,133.954C34.665,133.943 34.675,133.93 34.682,133.919L32.825,131.968L33.812,130.93L35.482,132.681C36.321,131.167 36.808,129.414 36.808,127.535L36.794,127.272L34.527,127.272L34.527,125.805L36.656,125.803C36.377,124.078 35.695,122.503 34.707,121.186L33.161,122.807L32.171,121.769L33.764,120.095C32.109,118.438 29.904,117.391 27.464,117.274L27.464,119.936L26.064,119.937L26.063,117.298C23.879,117.517 21.909,118.495 20.381,119.97L21.938,121.603L20.949,122.641L19.412,121.031C18.364,122.378 17.644,124.012 17.354,125.802L19.404,125.802L19.404,127.27L17.216,127.272C17.214,127.362 17.205,127.445 17.205,127.534C17.205,129.42 17.697,131.184 18.542,132.703L20.32,131.072L21.241,132.178L19.334,133.926C19.342,133.933 19.347,133.946 19.355,133.954L19.302,133.954L19.263,133.99L19.234,133.954L17.86,133.954ZM27.387,129.439C27.935,129.439 28.38,128.97 28.38,128.394C28.38,127.82 27.935,127.354 27.387,127.354L22.888,123.882L26.394,128.462C26.427,129.007 26.86,129.439 27.387,129.439Z" style="fill:white;"/>
    </g>
</svg>
