<?xml version="1.0" encoding="UTF-8" standalone="no"?>
<!DOCTYPE svg PUBLIC "-//W3C//DTD SVG 1.1//EN" "http://www.w3.org/Graphics/SVG/1.1/DTD/svg11.dtd">
<svg width="100%" height="100%" viewBox="0 0 30 60" version="1.1" xmlns="http://www.w3.org/2000/svg" xmlns:xlink="http://www.w3.org/1999/xlink" xml:space="preserve" xmlns:serif="http://www.serif.com/" style="fill-rule:evenodd;clip-rule:evenodd;stroke-linejoin:round;stroke-miterlimit:1.41421;">
    <g id="bottom" transform="matrix(1.25,0,0,0.9375,-2.5,28.125)">
        <rect x="2" y="2" width="24" height="32" style="fill:none;"/>
    </g>
    <g id="top" transform="matrix(1.25,0,0,0.9375,-2.5,-1.875)">
        <rect x="2" y="2" width="24" height="32" style="fill:none;"/>
    </g>
    <g id="Shape-1" serif:id="Shape 1" transform="matrix(1,0,0,1,-12.4999,-497)">
        <path d="M40.362,522.709C40.725,522.719 41,523.004 41,523.354C41,523.711 40.714,524 40.362,524L14.638,524C14.285,524 14,523.711 14,523.354C14,523.004 14.275,522.719 14.638,522.709L40.362,522.709ZM29.74,500C30.103,500.011 30.378,500.296 30.378,500.646L30.378,508.084L33.582,508.084L33.582,503.694C33.582,503.344 33.857,503.059 34.22,503.048L38.699,503.048C39.062,503.059 39.337,503.344 39.337,503.694L39.337,519.736C39.337,520.093 39.051,520.382 38.699,520.382L16.301,520.382C15.948,520.382 15.663,520.093 15.663,519.736L15.663,507.375C15.663,507.025 15.938,506.74 16.301,506.729L20.78,506.729C21.143,506.74 21.418,507.025 21.418,507.375L21.418,512.864L24.622,512.864L24.622,500.646C24.622,500.296 24.897,500.011 25.26,500L29.74,500ZM20.142,519.09L20.142,508.021L16.938,508.021L16.938,519.09L20.142,519.09ZM24.622,519.09L24.622,514.155L21.418,514.155L21.418,519.09L24.622,519.09ZM29.102,519.09L29.102,501.291L25.898,501.291L25.898,519.09L29.102,519.09ZM33.582,519.09L33.582,509.375L30.378,509.375L30.378,519.09L33.582,519.09ZM38.061,519.09L38.061,504.34L34.857,504.34L34.857,519.09L38.061,519.09Z" style="fill:rgb(37,37,37);"/>
    </g>
    <g id="Shape-11" serif:id="Shape 1" transform="matrix(1,0,0,1,-12.4999,-467)">
        <path d="M40.362,522.709C40.725,522.719 41,523.004 41,523.354C41,523.711 40.714,524 40.362,524L14.638,524C14.285,524 14,523.711 14,523.354C14,523.004 14.275,522.719 14.638,522.709L40.362,522.709ZM29.74,500C30.103,500.011 30.378,500.296 30.378,500.646L30.378,508.084L33.582,508.084L33.582,503.694C33.582,503.344 33.857,503.059 34.22,503.048L38.699,503.048C39.062,503.059 39.337,503.344 39.337,503.694L39.337,519.736C39.337,520.093 39.051,520.382 38.699,520.382L16.301,520.382C15.948,520.382 15.663,520.093 15.663,519.736L15.663,507.375C15.663,507.025 15.938,506.74 16.301,506.729L20.78,506.729C21.143,506.74 21.418,507.025 21.418,507.375L21.418,512.864L24.622,512.864L24.622,500.646C24.622,500.296 24.897,500.011 25.26,500L29.74,500ZM20.142,519.09L20.142,508.021L16.938,508.021L16.938,519.09L20.142,519.09ZM24.622,519.09L24.622,514.155L21.418,514.155L21.418,519.09L24.622,519.09ZM29.102,519.09L29.102,501.291L25.898,501.291L25.898,519.09L29.102,519.09ZM33.582,519.09L33.582,509.375L30.378,509.375L30.378,519.09L33.582,519.09ZM38.061,519.09L38.061,504.34L34.857,504.34L34.857,519.09L38.061,519.09Z" style="fill:white;"/>
    </g>
</svg>
