<?xml version="1.0" encoding="UTF-8" standalone="no"?>
<!DOCTYPE svg PUBLIC "-//W3C//DTD SVG 1.1//EN" "http://www.w3.org/Graphics/SVG/1.1/DTD/svg11.dtd">
<svg width="100%" height="100%" viewBox="0 0 207 36" version="1.1" xmlns="http://www.w3.org/2000/svg" xmlns:xlink="http://www.w3.org/1999/xlink" xml:space="preserve" xmlns:serif="http://www.serif.com/" style="fill-rule:evenodd;clip-rule:evenodd;stroke-linejoin:round;stroke-miterlimit:1.41421;">
    <g transform="matrix(1,0,0,1,-21.9999,-49.9999)">
        <path id="Rounded-Rectangle-5" serif:id="Rounded Rectangle 5" d="M29,50L221,50C224.866,50 228,53.134 228,57C228,57 223.476,66.952 220.514,73.469C219.072,76.641 218,79 218,79C217.062,80.911 217.234,82.643 215.992,83.906C214.722,85.199 212.955,86 211,86L39,86C35.134,86 32.875,82.866 32,79C32,79 30.971,76.736 29.573,73.661C26.613,67.149 22,57 22,57C22,53.134 25.134,50 29,50Z" style="fill:rgb(93,37,113);"/>
    </g>
</svg>
