<?xml version="1.0" encoding="UTF-8" standalone="no"?>
<!DOCTYPE svg PUBLIC "-//W3C//DTD SVG 1.1//EN" "http://www.w3.org/Graphics/SVG/1.1/DTD/svg11.dtd">
<svg width="100%" height="100%" viewBox="0 0 50 150" version="1.1" xmlns="http://www.w3.org/2000/svg" xmlns:xlink="http://www.w3.org/1999/xlink" xml:space="preserve" xmlns:serif="http://www.serif.com/" style="fill-rule:evenodd;clip-rule:evenodd;stroke-linejoin:round;stroke-miterlimit:1.41421;">
    <g id="arrow-copy" serif:id="arrow copy" transform="matrix(1,0,0,1,-205.995,-373.989)">
        <path d="M233.784,399.483L229.251,403.781C228.962,404.055 228.495,404.055 228.206,403.781C227.918,403.508 227.918,403.065 228.206,402.792L232.218,398.989L228.207,395.186C227.918,394.912 227.918,394.469 228.207,394.196C228.495,393.923 228.962,393.923 229.251,394.196L233.784,398.494C233.928,398.631 234,398.809 234,398.989C234,399.168 233.928,399.347 233.784,399.483Z" style="fill:rgb(134,134,134);fill-rule:nonzero;"/>
    </g>
    <g id="arrow-copy1" serif:id="arrow copy" transform="matrix(1,0,0,1,-205.995,-323.989)">
        <path d="M233.784,399.483L229.251,403.781C228.962,404.055 228.495,404.055 228.206,403.781C227.918,403.508 227.918,403.065 228.206,402.792L232.218,398.989L228.207,395.186C227.918,394.912 227.918,394.469 228.207,394.196C228.495,393.923 228.962,393.923 229.251,394.196L233.784,398.494C233.928,398.631 234,398.809 234,398.989C234,399.168 233.928,399.347 233.784,399.483Z" style="fill:white;fill-rule:nonzero;"/>
    </g>
    <g id="arrow" transform="matrix(1,0,0,1,-206.011,-54.9951)">
        <path d="M230.516,182.784L226.219,178.25C225.945,177.962 225.945,177.495 226.219,177.206C226.492,176.918 226.935,176.918 227.208,177.206L231.011,181.218L234.814,177.207C235.087,176.918 235.531,176.918 235.804,177.207C236.077,177.495 236.077,177.962 235.804,178.251L231.506,182.784C231.369,182.928 231.19,183 231.011,183C230.832,183 230.653,182.928 230.516,182.784Z" style="fill:white;fill-rule:nonzero;"/>
    </g>
</svg>
